<svg width="16" height="16" viewBox="0 0 16 16" fill="none" xmlns="http://www.w3.org/2000/svg">
<g clip-path="url(#clip0_19_1563)">
<path d="M3.99533 14.6495C5.0986 14.6495 5.99298 13.7551 5.99298 12.6518C5.99298 11.5486 5.0986 10.6542 3.99533 10.6542C2.89206 10.6542 1.99768 11.5486 1.99768 12.6518C1.99768 13.7551 2.89206 14.6495 3.99533 14.6495Z" stroke="#0A0A0A" stroke-width="1.33177" stroke-linecap="round" stroke-linejoin="round"/>
<path d="M5.99298 12.6518H11.653C12.2711 12.6518 12.8639 12.4062 13.301 11.9692C13.738 11.5321 13.9836 10.9393 13.9836 10.3212C13.9836 9.70307 13.738 9.11028 13.301 8.67321C12.8639 8.23614 12.2711 7.99059 11.653 7.99059H4.32827C3.71016 7.99059 3.11737 7.74505 2.6803 7.30798C2.24322 6.87091 1.99768 6.27811 1.99768 5.66C1.99768 5.04189 2.24322 4.44909 2.6803 4.01202C3.11737 3.57495 3.71016 3.32941 4.32827 3.32941H9.98828" stroke="#0A0A0A" stroke-width="1.33177" stroke-linecap="round" stroke-linejoin="round"/>
<path d="M11.9859 5.32709C13.0892 5.32709 13.9836 4.43271 13.9836 3.32944C13.9836 2.22617 13.0892 1.33179 11.9859 1.33179C10.8827 1.33179 9.98828 2.22617 9.98828 3.32944C9.98828 4.43271 10.8827 5.32709 11.9859 5.32709Z" stroke="#0A0A0A" stroke-width="1.33177" stroke-linecap="round" stroke-linejoin="round"/>
</g>
<defs>
<clipPath id="clip0_19_1563">
<rect width="15.9812" height="15.9812" fill="white"/>
</clipPath>
</defs>
</svg>
